<?xml version="1.0" encoding="utf-8" standalone="no"?>
<!DOCTYPE svg PUBLIC "-//W3C//DTD SVG 1.1//EN"
  "http://www.w3.org/Graphics/SVG/1.1/DTD/svg11.dtd">
<svg xmlns:xlink="http://www.w3.org/1999/xlink" width="460.8pt" height="345.6pt" viewBox="0 0 460.8 345.6" xmlns="http://www.w3.org/2000/svg" version="1.1">
 <metadata>
  <rdf:RDF xmlns:dc="http://purl.org/dc/elements/1.1/" xmlns:cc="http://creativecommons.org/ns#" xmlns:rdf="http://www.w3.org/1999/02/22-rdf-syntax-ns#">
   <cc:Work>
    <dc:type rdf:resource="http://purl.org/dc/dcmitype/StillImage"/>
    <dc:date>2022-01-13T17:20:44.863654</dc:date>
    <dc:format>image/svg+xml</dc:format>
    <dc:creator>
     <cc:Agent>
      <dc:title>Matplotlib v3.5.1, https://matplotlib.org/</dc:title>
     </cc:Agent>
    </dc:creator>
   </cc:Work>
  </rdf:RDF>
 </metadata>
 <defs>
  <style type="text/css">*{stroke-linejoin: round; stroke-linecap: butt}</style>
 </defs>
 <g id="figure_1">
  <g id="patch_1">
   <path d="M 0 345.6 
L 460.8 345.6 
L 460.8 0 
L 0 0 
L 0 345.6 
z
" style="fill: none"/>
  </g>
  <g id="axes_1">
   <g id="patch_2">
    <path d="M 128.065566 119.612555 
L 138.918421 119.612555 
C 147.058062 119.612555 152.484489 116.573755 160.624131 116.573755 
L 171.476985 116.573755 
L 184.500411 116.573755 
C 186.802213 116.573755 189.012093 115.658393 190.639713 114.030773 
C 192.267332 112.403154 193.182695 110.193273 193.182695 107.891471 
L 193.182695 99.209188 
L 190.57801 99.209188 
L 196.221494 93.565703 
L 201.864979 99.209188 
L 199.260294 99.209188 
L 199.260294 107.891471 
C 199.260294 111.804534 197.704177 115.561331 194.937224 118.328284 
C 192.170271 121.095238 188.413474 122.651354 184.500411 122.651354 
L 199.260294 122.651354 
L 310.393527 122.651354 
L 353.804946 122.651354 
L 353.804946 120.046669 
L 370.301285 136.543008 
L 353.804946 153.039347 
L 353.804946 150.434662 
L 332.099237 150.434662 
L 310.393527 150.434662 
L 287.819589 150.434662 
C 293.804273 150.434662 299.549963 152.814605 303.781774 157.046416 
C 308.013585 161.278227 310.393527 167.023916 310.393527 173.0086 
L 310.393527 173.0086 
L 312.998212 173.0086 
L 303.4477 182.559113 
L 293.897188 173.0086 
L 296.501873 173.0086 
L 296.501873 173.0086 
C 296.501873 170.706799 295.58651 168.496918 293.958891 166.869299 
C 292.331271 165.241679 290.121391 164.326316 287.819589 164.326316 
L 274.796163 164.326316 
L 247.881083 164.326316 
C 255.016669 164.326316 261.867298 167.16394 266.912919 172.209561 
C 271.958539 177.255182 274.796163 184.105811 274.796163 191.241396 
L 274.796163 199.92368 
L 277.400848 199.92368 
L 265.679765 211.644763 
L 253.958682 199.92368 
L 256.563367 199.92368 
L 256.563367 191.241396 
C 256.563367 188.939595 255.648005 186.729714 254.020385 185.102095 
C 252.392765 183.474475 250.182885 182.559113 247.881083 182.559113 
L 234.857657 182.559113 
L 220.097775 182.559113 
C 224.010838 182.559113 227.767635 184.115229 230.534588 186.882182 
C 233.301541 189.649135 234.857657 193.405932 234.857657 197.318995 
L 234.857657 214.683563 
L 237.462343 214.683563 
L 231.818858 220.327047 
L 226.175374 214.683563 
L 228.780059 214.683563 
L 228.780059 197.318995 
C 228.780059 195.017193 227.864696 192.807313 226.237077 191.179693 
C 224.609457 189.552074 222.399577 188.636711 220.097775 188.636711 
L 207.074349 188.636711 
L 184.500411 188.636711 
C 190.485096 188.636711 196.230785 191.016654 200.462596 195.248465 
C 204.694407 199.480276 207.074349 205.225965 207.074349 211.210649 
L 207.074349 245.939785 
L 209.679034 245.939785 
L 200.128522 255.490297 
L 190.57801 245.939785 
L 193.182695 245.939785 
L 193.182695 211.210649 
C 193.182695 208.908848 192.267332 206.698967 190.639713 205.071347 
C 189.012093 203.443728 186.802213 202.528365 184.500411 202.528365 
L 171.476985 202.528365 
L 171.476985 202.528365 
L 160.624131 202.528365 
C 152.484489 202.528365 147.058062 199.489566 138.918421 199.489566 
L 128.065566 199.489566 
L 84.654147 199.489566 
L 124.592653 159.55106 
L 84.654147 119.612555 
L 106.359856 119.612555 
L 128.065566 119.612555 
z
" clip-path="url(#p4d1e2d90f8)" style="fill: #808080; stroke: #ffffff; stroke-width: 0.8; stroke-linejoin: miter"/>
   </g>
   <g id="text_1">
    <text style="fill: #262626; font: 10px 'Arial'" transform="translate(20.05366 156.847779)">All sessions</text>
    <text style="fill: #262626; font: 10px 'Arial'" transform="translate(40.89116 167.424654)">92</text>
   </g>
   <g id="text_2">
    <text style="fill: #262626; font: 8px 'Arial'" transform="translate(164.205869 73.991635)">Histology damage</text>
    <text style="fill: #262626; font: 8px 'Arial'" transform="translate(193.997119 82.546885)">7</text>
   </g>
   <g id="text_3">
    <text style="fill: #262626; font: 8px 'Arial'" transform="translate(291.241643 193.468663)">Sessions per lab</text>
    <text style="fill: #262626; font: 8px 'Arial'" transform="translate(316.363518 201.930163)">16</text>
   </g>
   <g id="text_4">
    <text style="fill: #262626; font: 8px 'Arial'" transform="translate(251.325385 225.112124)">Noise/yield</text>
    <text style="fill: #262626; font: 8px 'Arial'" transform="translate(266.440385 233.667374)">21</text>
   </g>
   <g id="text_5">
    <text style="fill: #262626; font: 8px 'Arial'" transform="translate(215.366983 235.482115)">Targeting</text>
    <text style="fill: #262626; font: 8px 'Arial'" transform="translate(229.594483 244.037365)">7</text>
   </g>
   <g id="text_6">
    <text style="fill: #262626; font: 8px 'Arial'" transform="translate(184.342272 270.69224)">Behavior</text>
    <text style="fill: #262626; font: 8px 'Arial'" transform="translate(195.679772 279.15374)">16</text>
   </g>
   <g id="text_7">
    <text style="fill: #262626; font: 10px 'Arial'" transform="translate(387.172337 133.781133)">Data analysis</text>
    <text style="fill: #262626; font: 10px 'Arial'" transform="translate(411.624681 144.475196)">32</text>
   </g>
  </g>
 </g>
 <defs>
  <clipPath id="p4d1e2d90f8">
   <rect x="57.6" y="41.472" width="357.12" height="266.112"/>
  </clipPath>
 </defs>
</svg>
